<?xml version="1.0" encoding="UTF-8" standalone="no"?>
<!-- Created with Inkscape (http://www.inkscape.org/) -->

<svg
   xmlns:dc="http://purl.org/dc/elements/1.1/"
   xmlns:cc="http://creativecommons.org/ns#"
   xmlns:rdf="http://www.w3.org/1999/02/22-rdf-syntax-ns#"
   xmlns:svg="http://www.w3.org/2000/svg"
   xmlns="http://www.w3.org/2000/svg"
   xmlns:sodipodi="http://sodipodi.sourceforge.net/DTD/sodipodi-0.dtd"
   xmlns:inkscape="http://www.inkscape.org/namespaces/inkscape"
   width="210mm"
   height="297mm"
   viewBox="0 0 210 297"
   version="1.1"
   id="svg8"
   inkscape:version="0.92.2 2405546, 2018-03-11"
   sodipodi:docname="error.svg"
   inkscape:export-filename="/home/farm/Documents/AnilistBot/others/img/error/error.png"
   inkscape:export-xdpi="96"
   inkscape:export-ydpi="96">
  <defs
     id="defs2">
    <clipPath
       clipPathUnits="userSpaceOnUse"
       id="clipPath827">
      <path
         style="fill:none;stroke:#000000;stroke-width:0.26458332px;stroke-linecap:butt;stroke-linejoin:miter;stroke-opacity:1"
         d="m -322.41368,293.97619 20.4107,57.45239 34.01787,18.89879 34.7738,-0.37796 30.61607,-18.14287 21.16667,-57.07439 2.26786,-51.0268 -74.08334,-34.39583 -85.8006,48.38095 z"
         id="path829"
         inkscape:connector-curvature="0" />
    </clipPath>
    <clipPath
       clipPathUnits="userSpaceOnUse"
       id="clipPath835">
      <path
         style="fill:none;stroke:#000000;stroke-width:0.31074002px;stroke-linecap:butt;stroke-linejoin:miter;stroke-opacity:1"
         d="m -363.89164,264.14023 9.76608,40.39619 h -15.53699 l -15.53702,-17.75653 6.21482,-21.75182 z"
         id="path837"
         inkscape:connector-curvature="0" />
    </clipPath>
    <clipPath
       clipPathUnits="userSpaceOnUse"
       id="clipPath835-0">
      <path
         style="fill:none;stroke:#000000;stroke-width:0.31074002px;stroke-linecap:butt;stroke-linejoin:miter;stroke-opacity:1"
         d="m -363.89164,264.14023 9.76608,40.39619 h -15.53699 l -15.53702,-17.75653 6.21482,-21.75182 z"
         id="path837-3"
         inkscape:connector-curvature="0" />
    </clipPath>
    <clipPath
       clipPathUnits="userSpaceOnUse"
       id="clipPath905">
      <g
         id="g923">
        <path
           inkscape:connector-curvature="0"
           id="path907"
           d="m -139.27968,416.13536 6.21482,21.75182 -9.92434,11.72372 3.47451,3.74176 6.68174,1.06908 -4.00905,-6.41446 12.02713,-2.40543 -3.4745,-2.40543 0.80181,-5.61266 4.54358,3.47451"
           style="fill:none;stroke:#000000;stroke-width:0.26458332px;stroke-linecap:butt;stroke-linejoin:miter;stroke-opacity:1" />
        <g
           id="g921">
          <path
             style="fill:none;stroke:#000000;stroke-width:0.26458332px;stroke-linecap:butt;stroke-linejoin:miter;stroke-opacity:1"
             d="m -122.94398,441.05827 9.35443,-4.2763 -4.81085,-1.60362 -5.07812,-9.6217 7.48355,-0.53454 3.4745,5.87992 v -15.23437 l -8.28535,-3.47451 10.15624,-6.68173 -1.60362,-15.50162 -5.34539,4.81084 -14.69982,-11.22532 5.87993,-1.06908 6.41446,5.07813 -0.8018,-8.81989 -10.42352,-6.41448 11.75986,-16.03616 -10.42351,4.81084 -8.01808,0.26726 3.20723,-3.47448 -13.09621,3.74176 -5.61266,-5.61266 6.41447,-0.80182 -13.63074,-11.49257 -15.23437,3.47451 5.07812,-17.37254 -8.01808,7.48355 -12.82894,2.93997 -12.02713,5.07812 -4.54358,-22.45064 -5.87993,11.22532 -9.35443,6.1472 1.60362,-8.28535 -3.20724,-1.60361 -6.94901,9.35442 1.87089,12.2944 -16.57071,-8.55263 -5.61266,-13.63075 -2.93997,12.29442 6.41447,10.42349 -6.94901,8.0181 -21.9161,-4.27631 3.20723,11.22532 4.54358,1.60362 -20.0452,5.07812 -5.07812,8.55263 16.57069,-2.93997 0.26729,6.41445 1.87089,8.28537 3.45787,15.83947"
             id="path909"
             inkscape:connector-curvature="0" />
          <path
             style="fill:none;stroke:#000000;stroke-width:0.26458332px;stroke-linecap:butt;stroke-linejoin:miter;stroke-opacity:1"
             d="m -294.53101,412.46043 -10.42353,-14.16528 -7.75081,14.16528 -1.06907,-10.42352"
             id="path911"
             inkscape:connector-curvature="0" />
          <path
             style="fill:none;stroke:#000000;stroke-width:0.26458332px;stroke-linecap:butt;stroke-linejoin:miter;stroke-opacity:1"
             d="m -313.77442,402.03691 -17.6398,10.69078 11.75988,-4.00905 -11.4926,8.0181 -2.93997,-0.8018 4.27633,5.61266 12.02711,-1.33636 -3.74176,15.76891 2.67268,-0.8018 4.00905,-5.87994 12.02714,1.60362 3.60794,-14.81299 5.74648,-0.1541 -1.06907,-3.47451"
             id="path913"
             inkscape:connector-curvature="0" />
          <path
             style="fill:none;stroke:#000000;stroke-width:0.26458332px;stroke-linecap:butt;stroke-linejoin:miter;stroke-opacity:1"
             d="m -322.41368,391.11607 16.25296,-14.36309 2.26787,-5.29166 -18.89881,15.11903"
             id="path915"
             inkscape:connector-curvature="0" />
          <path
             style="fill:none;stroke:#000000;stroke-width:0.26458332px;stroke-linecap:butt;stroke-linejoin:miter;stroke-opacity:1"
             d="m -322.79166,386.58035 -22.30059,-1.51191 22.67857,6.04763 -20.41072,13.41816 4.72471,7.9375 6.68547,0.25596"
             id="path917"
             inkscape:connector-curvature="0" />
          <path
             style="fill:none;stroke:#000000;stroke-width:0.26458332px;stroke-linecap:butt;stroke-linejoin:miter;stroke-opacity:1"
             d="m -317.51619,338.69405 16.5707,11.22531 -2.67269,-14.9671 z"
             id="path919"
             inkscape:connector-curvature="0" />
        </g>
      </g>
    </clipPath>
    <clipPath
       clipPathUnits="userSpaceOnUse"
       id="clipPath1030">
      <path
         style="fill:none;stroke:#000000;stroke-width:0.26458332px;stroke-linecap:butt;stroke-linejoin:miter;stroke-opacity:1"
         d="m -293.46194,415.93495 2.35196,5.6661 8.6061,1.12252 -1.61144,-7.52236 v 0 0 0 l -1.3701,-6.54704 4.10406,-0.5235 -2.24507,-7.48356 5.39885,-14.3791 8.44571,6.1472 1.8709,-9.7286 8.60608,-11.97366 3.36759,5.98683 2.24507,-5.61266 9.72861,5.98683 1.12253,-11.22531 12.72203,-13.79112 -4.86431,13.79112 5.23849,-1.12255 3.74177,11.59952 5.61266,-11.59952 2.99342,3.36761 1.12253,-13.09621 4.49013,-2.61924 5.98684,7.85773 -1.49671,11.22531 9.72861,-7.48355 5.23848,6.73521 -4.49013,10.10277 11.97368,-12.34784 5.61266,5.98683 -7.10937,10.85115 15.71545,-7.10939 9.35443,14.96711 -4.86431,11.5995 -3.36759,9.35442 12.34785,-10.85115 -2.12468,9.35657 6.08541,-3.70417 -1.17904,6.32878 v 0 l 3.95717,-2.88919 -1.85209,8.86354 3.83646,-6.08542 11.10817,-17.10859 -49.39141,-50.51393 -16.94489,-2.13815 -45.16855,7.21627 -29.66693,27.2615 z"
         id="path1032"
         inkscape:connector-curvature="0" />
    </clipPath>
    <clipPath
       clipPathUnits="userSpaceOnUse"
       id="clipPath1069">
      <path
         style="fill:none;stroke:#000000;stroke-width:0.26458332px;stroke-linecap:butt;stroke-linejoin:miter;stroke-opacity:1"
         d="m -293.46194,415.93495 1.36194,-19.98078 13.60514,-16.10061 z"
         id="path1071"
         inkscape:connector-curvature="0" />
    </clipPath>
    <clipPath
       clipPathUnits="userSpaceOnUse"
       id="clipPath1103">
      <path
         style="fill:none;stroke:#000000;stroke-width:0.26458332px;stroke-linecap:butt;stroke-linejoin:miter;stroke-opacity:1"
         d="m -134.70384,357.93746 -12.2944,-2.67271 10.79769,-5.87992 h 11.22532 l -15.34127,-15.71545 8.60608,-13.47039 -20.57975,5.61266 -8.23191,5.61266 -4.49012,-8.98025 -17.96052,3.74176 -13.47038,-5.61266 -2.24506,-21.32809 -23.199,15.71543 -19.08304,-20.95391 -1.87089,17.21215 h -5.23848 l 0.74835,-7.85773 -15.34127,9.72862 2.61924,18.33468 -20.57976,-19.8314 4.11596,12.72204 9.35443,13.84456 -19.45722,7.10936 -8.23191,-5.23849 5.23849,9.35445 -5.92632,1.32559 2.91041,2.38125 -6.08541,6.87917 24.22877,7.58833 50.38373,-19.75917 z"
         id="path1105"
         inkscape:connector-curvature="0" />
    </clipPath>
    <clipPath
       clipPathUnits="userSpaceOnUse"
       id="clipPath1304">
      <g
         id="g1314">
        <g
           id="g1310">
          <path
             style="fill:none;stroke:#000000;stroke-width:0.26458332px;stroke-linecap:butt;stroke-linejoin:miter;stroke-opacity:1"
             d="m -342.8244,404.53423 -12.7756,-15.9884 10.50775,-3.47739 -10.50775,-8.69344 8.46667,-10.05417 19.05,-2.11666 -18.52083,-11.64167 -7.9375,-12.17083 13.22916,4.23333 15.40405,-1.60118 -13.09622,-12.34787 15.15467,-2.98428 14.2875,-5.29167 -17.99166,-4.7625 -6.35,4.23333 5.29166,-6.87916 15.34584,-3.175 7.40833,1.05833 -1.5875,-5.82083 6.87917,-22.75417 6.35,15.34583 1.05833,-8.99583 15.34583,-20.10833 1.5875,10.05416 14.2875,8.46667 5.29167,6.87917 1.05833,-13.22917 17.99167,-16.40417 1.5875,17.99167 11.64167,-11.1125 12.7,-6.35 -6.87917,10.05417 h 7.9375 l 23.28333,-6.35"
             id="path1306"
             inkscape:connector-curvature="0" />
          <path
             style="fill:none;stroke:#000000;stroke-width:0.26458332px;stroke-linecap:butt;stroke-linejoin:miter;stroke-opacity:1"
             d="m -187.325,270.54167 -11.64166,15.875 21.69583,-2.64584 6.87917,5.29167 25.92916,1.5875 -14.81666,10.58333 31.22083,-1.05833 6.87916,-4.7625 -10.53125,24.78648 11.58959,2.73019 -6.87917,12.7 15.34583,10.05416 9.525,-5.29166 -6.35,17.99166"
             id="path1308"
             inkscape:connector-curvature="0" />
        </g>
        <path
           inkscape:connector-curvature="0"
           id="path1312"
           d="m -342.8244,404.53423 11.41018,8.19346 17.6398,-10.69078 20.31248,13.89803 23.51971,-46.77216 48.05507,-54.20228 -14.12117,-30.6605"
           style="fill:none;stroke:#000000;stroke-width:0.26458332px;stroke-linecap:butt;stroke-linejoin:miter;stroke-opacity:1" />
      </g>
    </clipPath>
    <clipPath
       clipPathUnits="userSpaceOnUse"
       id="clipPath1326">
      <g
         id="g1340">
        <g
           id="g1336">
          <g
             id="g1332">
            <path
               inkscape:connector-curvature="0"
               id="path1328"
               d="m -342.8244,404.53423 -12.7756,-15.9884 10.50775,-3.47739 -10.50775,-8.69344 8.46667,-10.05417 19.05,-2.11666 -18.52083,-11.64167 -7.9375,-12.17083 13.22916,4.23333 15.40405,-1.60118 -13.09622,-12.34787 15.15467,-2.98428 14.2875,-5.29167 -17.99166,-4.7625 -6.35,4.23333 5.29166,-6.87916 15.34584,-3.175 7.40833,1.05833 -1.5875,-5.82083 6.87917,-22.75417 6.35,15.34583 1.05833,-8.99583 15.34583,-20.10833 1.5875,10.05416 14.2875,8.46667 5.29167,6.87917 1.05833,-13.22917 17.99167,-16.40417 1.5875,17.99167 11.64167,-11.1125 12.7,-6.35 -6.87917,10.05417 h 7.9375 l 23.28333,-6.35"
               style="fill:none;stroke:#000000;stroke-width:0.26458332px;stroke-linecap:butt;stroke-linejoin:miter;stroke-opacity:1" />
            <path
               inkscape:connector-curvature="0"
               id="path1330"
               d="m -187.325,270.54167 -11.64166,15.875 21.69583,-2.64584 6.87917,5.29167 25.92916,1.5875 -14.81666,10.58333 31.22083,-1.05833 6.87916,-4.7625 -10.53125,24.78648 11.58959,2.73019 -6.87917,12.7 15.34583,10.05416 9.525,-5.29166 -6.35,17.99166"
               style="fill:none;stroke:#000000;stroke-width:0.26458332px;stroke-linecap:butt;stroke-linejoin:miter;stroke-opacity:1" />
          </g>
          <path
             style="fill:none;stroke:#000000;stroke-width:0.26458332px;stroke-linecap:butt;stroke-linejoin:miter;stroke-opacity:1"
             d="m -342.8244,404.53423 11.41018,8.19346 17.6398,-10.69078 20.31248,13.89803 23.51971,-46.77216 48.05507,-54.20228 -14.12117,-30.6605"
             id="path1334"
             inkscape:connector-curvature="0" />
        </g>
        <path
           inkscape:connector-curvature="0"
           id="path1338"
           d="m -102.12917,340.39167 -9.525,28.575 11.64167,1.05833 8.466668,12.7 -15.874998,-5.29167 1.90282,8.43378 7.29646,1.49672 -12.42803,18.14759 L -221.88716,314.9605 -236.00833,284.3"
           style="fill:none;stroke:#000000;stroke-width:0.26458332px;stroke-linecap:butt;stroke-linejoin:miter;stroke-opacity:1" />
      </g>
    </clipPath>
    <clipPath
       clipPathUnits="userSpaceOnUse"
       id="clipPath1349">
      <path
         style="fill:none;stroke:#000000;stroke-width:0.26458332px;stroke-linecap:butt;stroke-linejoin:miter;stroke-opacity:1"
         d="m -212.725,294.88334 69.78926,28.30906 2.24506,-0.37417 -46.63432,-52.27656 -26.89152,23.09074 1.87088,2.05796"
         id="path1351"
         inkscape:connector-curvature="0" />
    </clipPath>
    <clipPath
       clipPathUnits="userSpaceOnUse"
       id="clipPath1357">
      <path
         style="fill:none;stroke:#000000;stroke-width:0.26458332px;stroke-linecap:butt;stroke-linejoin:miter;stroke-opacity:1"
         d="m -233.3625,301.23334 8.99584,-17.4625 6.87916,12.7 23.28334,-15.34584 3.70416,18.52084 18.52084,-1.05834 -8.99584,12.7 h 26.45834 l 14.2875,-6.35 v 5.29167 l 12.69999,-8.99583 6.35,-4.7625 -10.58333,24.87083 11.1125,2.64583 -3.175,7.40834 21.16667,8.46666 -38.1,-4.23333 L -228.6,323.9875 Z"
         id="path1359"
         inkscape:connector-curvature="0" />
    </clipPath>
    <clipPath
       clipPathUnits="userSpaceOnUse"
       id="clipPath1379">
      <path
         style="fill:none;stroke:#000000;stroke-width:0.26458332px;stroke-linecap:butt;stroke-linejoin:miter;stroke-opacity:1"
         d="m -110.06667,405.47917 15.345839,-8.99583 -6.349999,-1.05834 -7.9375,-13.22916 16.93333,2.64583 -6.35,-16.93333 -11.64167,-5.82084 10.583339,-2.64583 12.170831,-22.75417 -18.52083,3.70417 -41.80417,-10.05417 -11.1125,35.45417 z"
         id="path1381"
         inkscape:connector-curvature="0" />
    </clipPath>
    <clipPath
       clipPathUnits="userSpaceOnUse"
       id="clipPath1417">
      <path
         style="fill:none;stroke:#000000;stroke-width:0.26458332px;stroke-linecap:butt;stroke-linejoin:miter;stroke-opacity:1"
         d="m -215.37083,328.22084 -2.11667,19.05 6.35,-8.99584 z"
         id="path1419"
         inkscape:connector-curvature="0" />
    </clipPath>
    <clipPath
       clipPathUnits="userSpaceOnUse"
       id="clipPath1423">
      <path
         style="fill:none;stroke:#000000;stroke-width:0.26458332px;stroke-linecap:butt;stroke-linejoin:miter;stroke-opacity:1"
         d="m -159.80833,327.69167 4.23333,-1.5875 8.46667,7.9375 -4.7625,2.11667 -11.64167,-4.7625 z"
         id="path1425"
         inkscape:connector-curvature="0" />
    </clipPath>
    <clipPath
       clipPathUnits="userSpaceOnUse"
       id="clipPath1429">
      <path
         style="fill:none;stroke:#000000;stroke-width:0.26458332px;stroke-linecap:butt;stroke-linejoin:miter;stroke-opacity:1"
         d="m -151.16764,363.22939 -0.37418,4.86431 7.10937,12.34784 1.87089,-0.37417 0.37417,-10.47697 -7.10937,-3.36759 z"
         id="path1431"
         inkscape:connector-curvature="0" />
    </clipPath>
    <clipPath
       clipPathUnits="userSpaceOnUse"
       id="clipPath1452">
      <path
         style="fill:none;stroke:#000000;stroke-width:0.26458332px;stroke-linecap:butt;stroke-linejoin:miter;stroke-opacity:1"
         d="m -220.13333,493.32084 21.16667,-1.05834 29.46564,-17.27403 7.38869,-19.33729 13.51045,-0.007 15.53702,-17.75653 -6.21482,-21.75182 -8.801,-0.89532 0.28063,-53.56082 -72.99474,-8.7199 z"
         id="path1454"
         inkscape:connector-curvature="0" />
    </clipPath>
    <clipPath
       clipPathUnits="userSpaceOnUse"
       id="clipPath1470">
      <path
         style="fill:none;stroke:#000000;stroke-width:0.26458332px;stroke-linecap:butt;stroke-linejoin:miter;stroke-opacity:1"
         d="m -173.99246,358.73925 25.81824,27.12787 -0.18709,-11.5995 -3.18051,-6.17392 -5.09151,-9.63474 z"
         id="path1472"
         inkscape:connector-curvature="0" />
    </clipPath>
    <clipPath
       clipPathUnits="userSpaceOnUse"
       id="clipPath1157">
      <path
         style="fill:none;stroke:#000000;stroke-width:0.26458332px;stroke-linecap:butt;stroke-linejoin:miter;stroke-opacity:1"
         d="m -1229.5467,135.35539 112.2532,134.70384 116.7433,-18.70887 68.84867,-71.09369 11.22532,-11.22532 -110.75649,-137.697254 z"
         id="path1159"
         inkscape:connector-curvature="0" />
    </clipPath>
    <clipPath
       clipPathUnits="userSpaceOnUse"
       id="clipPath1217">
      <path
         style="fill:none;stroke:#000000;stroke-width:0.26458332px;stroke-linecap:butt;stroke-linejoin:miter;stroke-opacity:1"
         d="m -1119.5386,268.0948 -124.5322,-151.01146 212.725,-84.666667 68.79166,85.328117 c -7.94004,94.87326 -79.08866,146.04625 -156.98446,150.35001 z"
         id="path1219"
         inkscape:connector-curvature="0"
         sodipodi:nodetypes="ccccc" />
    </clipPath>
    <clipPath
       clipPathUnits="userSpaceOnUse"
       id="clipPath1189">
      <path
         style="fill:none;stroke:#000000;stroke-width:0.30869138px;stroke-linecap:butt;stroke-linejoin:miter;stroke-opacity:1"
         d="m -862.77508,713.59234 c 6.47181,18.92154 9.83419,26.40491 30.12233,50.64045 28.52087,25.83363 62.17727,24.7055 95.16909,27.06643 34.45204,-0.30475 40.21143,0.79256 87.74766,-17.46221 18.59267,-10.94547 36.50981,-28.43289 47.58458,-55.44257 7.90323,-21.69326 9.49886,-46.52076 9.60421,-70.72201 -3.32941,-51.41476 -10.37957,-97.16132 -20.95465,-126.16455 -13.002,-36.11827 -18.29052,-74.57607 -51.51356,-107.39266 -25.59743,-19.36123 -91.55099,-34.41768 -125.72799,0 -23.01949,22.51403 -34.23335,57.06129 -49.33079,93.85946 -12.99197,43.98465 -26.39431,82.81696 -26.62989,141.444 0.88326,31.50148 -0.41799,44.46228 3.92901,64.17366 z"
         id="path1191"
         inkscape:connector-curvature="0"
         sodipodi:nodetypes="cccccccccccc" />
    </clipPath>
    <clipPath
       clipPathUnits="userSpaceOnUse"
       id="clipPath1243">
      <path
         style="fill:none;stroke:#000000;stroke-width:0.26951003px;stroke-linecap:butt;stroke-linejoin:miter;stroke-opacity:1"
         d="m -1063.0958,187.28349 c 13.4848,-83.18651 29.7668,-118.050411 43.3917,-168.580372 22.55609,-59.574247 110.62265,-81.474455 149.75415,-1.098114 22.2503,61.269698 28.16715,115.852326 34.925,175.149166 -11.78168,107.59678 -219.89985,110.74022 -228.07085,-5.47068 z"
         id="path1245"
         inkscape:connector-curvature="0"
         sodipodi:nodetypes="ccccc" />
    </clipPath>
    <clipPath
       clipPathUnits="userSpaceOnUse"
       id="clipPath1259">
      <path
         style="fill:none;stroke:#000000;stroke-width:0.26458332px;stroke-linecap:butt;stroke-linejoin:miter;stroke-opacity:1"
         d="m -505.88333,115.49584 c 2.40855,0.50868 9.75524,-2.68623 17.72708,-6.35001 2.91383,0.13401 7.25144,3.75801 14.02292,4.76251 -2.84332,-6.15746 -5.83737,-13.15613 -16.93334,-15.875003 -10.01757,3.281493 -13.18474,9.988193 -14.81666,17.462503 z"
         id="path1261"
         inkscape:connector-curvature="0"
         sodipodi:nodetypes="ccccc" />
    </clipPath>
    <clipPath
       clipPathUnits="userSpaceOnUse"
       id="clipPath1259-2">
      <path
         style="fill:none;stroke:#000000;stroke-width:0.26458332px;stroke-linecap:butt;stroke-linejoin:miter;stroke-opacity:1"
         d="m -505.88333,115.49584 c 2.40855,0.50868 9.75524,-2.68623 17.72708,-6.35001 2.91383,0.13401 7.25144,3.75801 14.02292,4.76251 -2.84332,-6.15746 -5.83737,-13.15613 -16.93334,-15.875003 -10.01757,3.281493 -13.18474,9.988193 -14.81666,17.462503 z"
         id="path1261-2"
         inkscape:connector-curvature="0"
         sodipodi:nodetypes="ccccc" />
    </clipPath>
    <clipPath
       clipPathUnits="userSpaceOnUse"
       id="clipPath1259-28">
      <path
         style="fill:none;stroke:#000000;stroke-width:0.26458332px;stroke-linecap:butt;stroke-linejoin:miter;stroke-opacity:1"
         d="m -505.88333,115.49584 c 2.40855,0.50868 9.75524,-2.68623 17.72708,-6.35001 2.91383,0.13401 7.25144,3.75801 14.02292,4.76251 -2.84332,-6.15746 -5.83737,-13.15613 -16.93334,-15.875003 -10.01757,3.281493 -13.18474,9.988193 -14.81666,17.462503 z"
         id="path1261-1"
         inkscape:connector-curvature="0"
         sodipodi:nodetypes="ccccc" />
    </clipPath>
    <clipPath
       clipPathUnits="userSpaceOnUse"
       id="clipPath1259-2-4">
      <path
         style="fill:none;stroke:#000000;stroke-width:0.26458332px;stroke-linecap:butt;stroke-linejoin:miter;stroke-opacity:1"
         d="m -505.88333,115.49584 c 2.40855,0.50868 9.75524,-2.68623 17.72708,-6.35001 2.91383,0.13401 7.25144,3.75801 14.02292,4.76251 -2.84332,-6.15746 -5.83737,-13.15613 -16.93334,-15.875003 -10.01757,3.281493 -13.18474,9.988193 -14.81666,17.462503 z"
         id="path1261-2-7"
         inkscape:connector-curvature="0"
         sodipodi:nodetypes="ccccc" />
    </clipPath>
    <clipPath
       clipPathUnits="userSpaceOnUse"
       id="clipPath1259-2-6">
      <path
         style="fill:none;stroke:#000000;stroke-width:0.26458332px;stroke-linecap:butt;stroke-linejoin:miter;stroke-opacity:1"
         d="m -505.88333,115.49584 c 2.40855,0.50868 9.75524,-2.68623 17.72708,-6.35001 2.91383,0.13401 7.25144,3.75801 14.02292,4.76251 -2.84332,-6.15746 -5.83737,-13.15613 -16.93334,-15.875003 -10.01757,3.281493 -13.18474,9.988193 -14.81666,17.462503 z"
         id="path1261-2-3"
         inkscape:connector-curvature="0"
         sodipodi:nodetypes="ccccc" />
    </clipPath>
    <clipPath
       clipPathUnits="userSpaceOnUse"
       id="clipPath1422">
      <path
         style="fill:none;stroke:#000000;stroke-width:0.26458332px;stroke-linecap:butt;stroke-linejoin:miter;stroke-opacity:1"
         d="m -1149.7418,231.86674 c 35.1633,4.83072 41.6609,-2.28263 55.0601,-6.52027 42.7732,9.67538 52.0913,1.33645 71.7231,-1.44895 14.5849,3.22313 23.34816,8.03399 57.95791,5.7958 -4.18325,5.31282 5.55657,10.62563 14.48951,15.93845 -7.45792,22.37911 -37.00253,47.6519 -107.94672,47.81533 -42.8886,-2.23951 -98.1983,-15.93921 -99.2531,-48.53981 z"
         id="path1424"
         inkscape:connector-curvature="0"
         sodipodi:nodetypes="cccccccc" />
    </clipPath>
    <clipPath
       clipPathUnits="userSpaceOnUse"
       id="clipPath1467">
      <path
         style="fill:none;stroke:#000000;stroke-width:0.26458332px;stroke-linecap:butt;stroke-linejoin:miter;stroke-opacity:1"
         d="m -1078.381,-56.000438 c 0.9909,-1.018038 3.8141,-1.425274 6.158,-1.992308 2.1826,8.680805 4.5635,8.530403 7.607,10.323767 l 15.214,-4.527965 c 3.7674,3.040636 7.4354,7.47346 12.1349,-2.535664 l -0.3622,-2.716781 c -0.8656,-2.113053 -1.5714,-3.501631 -9.056,-5.614681 -3.8687,-0.329626 -7.6495,-1.608764 -9.5992,-2.897902 l -1.9923,-3.441255 0.1811,3.441255 c -0.7742,4.286478 -9.639,3.501631 -9.4182,4.165733 l -10.5049,1.086712 -1.8111,3.984612 z"
         id="path1469"
         inkscape:connector-curvature="0"
         sodipodi:nodetypes="cccccccccccccc" />
    </clipPath>
    <clipPath
       clipPathUnits="userSpaceOnUse"
       id="clipPath1743">
      <path
         style="fill:none;stroke:#000000;stroke-width:0.26458332px;stroke-linecap:butt;stroke-linejoin:miter;stroke-opacity:1"
         d="m -1745.9847,357.85589 30.4279,23.18322 47.8154,60.85588 92.0083,45.64192 c 34.2361,-6.30663 66.6271,-9.53815 128.9566,-62.66706 36.7217,-33.71501 53.9351,-73.1311 65.2027,-114.8293 7.5739,-20.66137 5.4516,-49.80691 5.7958,-76.79435 l -131.13,-123.16075 -60.1314,-0.72447 -13.765,39.84612 -32.6014,-2.8979 -23.1832,-23.90767 -13.0405,73.89644 z"
         id="path1745"
         inkscape:connector-curvature="0"
         sodipodi:nodetypes="cccccccccccccc" />
    </clipPath>
    <clipPath
       clipPathUnits="userSpaceOnUse"
       id="clipPath1008">
      <path
         style="fill:none;stroke:#000000;stroke-width:0.26458332px;stroke-linecap:butt;stroke-linejoin:miter;stroke-opacity:1"
         d="m -2434.9604,71.688275 c 1.9615,39.940595 9.767,99.882835 15.214,108.852375 3.2412,6.16744 5.9315,10.70867 13.0405,15.03285 14.2208,6.7208 43.3153,7.69915 63.0293,-0.18112 7.2113,-3.26848 12.5392,-8.63791 15.5762,-13.76503 11.5771,-20.19295 15.0504,-77.5645 17.7497,-113.19921 0.4513,-17.707753 1.2785,-29.012936 -1.449,-47.634232 -0.9953,-11.6691128 -8.1656,-27.6428119 -14.8518,-34.7748 -23.1811,-26.02396 -75.2711,-19.116385 -91.646,-0.543356 -11.1591,12.5839081 -14.5811,25.439211 -15.214,36.404868 -1.5333,15.546505 -2.7922,27.069829 -1.4489,49.807655 z"
         id="path1010"
         inkscape:connector-curvature="0"
         sodipodi:nodetypes="ccccccccccc" />
    </clipPath>
    <clipPath
       clipPathUnits="userSpaceOnUse"
       id="clipPath1066">
      <path
         style="fill:none;stroke:#000000;stroke-width:0.26458332px;stroke-linecap:butt;stroke-linejoin:miter;stroke-opacity:1"
         d="m -2415.918,89.141911 c -0.3874,1.439908 -0.8701,2.530256 -0.7685,5.763162 -0.1126,5.884727 0.8517,9.831137 1.5369,14.279827 1.0009,5.16627 1.6329,10.45552 3.5859,15.30441 1.0913,1.59003 2.0705,2.73218 3.3299,2.30527 1.2003,-0.0472 1.6303,-1.05716 2.1772,-1.92106 1.2238,-2.46115 1.5368,-13.57545 2.3052,-20.36318 0.7896,-4.575014 1.0045,-8.893326 1.3127,-13.415359 0.01,-1.418408 -0.1881,-2.935283 -1.5688,-3.617984 -2.9051,-0.603073 -6.5111,-0.18732 -9.2851,-0.03202 -1.1232,0.269245 -1.867,0.63767 -2.6254,1.696932 z"
         id="path1068"
         inkscape:connector-curvature="0"
         sodipodi:nodetypes="ccccccccccc" />
    </clipPath>
    <clipPath
       clipPathUnits="userSpaceOnUse"
       id="clipPath1070">
      <path
         style="fill:none;stroke:#000000;stroke-width:0.26458332px;stroke-linecap:butt;stroke-linejoin:miter;stroke-opacity:1"
         d="m -2403.9435,47.198889 c 2.6516,1.225327 5.4837,1.240633 7.3641,0.704384 1.5023,-0.587518 2.6386,-1.376323 3.4579,-2.817545 0.9513,-3.159583 0.021,-8.922232 0.064,-13.639488 -0.153,-1.949014 -0.662,-3.326818 -2.2412,-4.802635 -1.238,-1.2769 -2.7321,-0.597638 -3.8421,-0.06404 -2.817,2.587747 -7.0523,15.19015 -6.6917,17.129401 0.5684,2.229606 0.5791,2.330087 1.889,3.489923 z"
         id="path1072"
         inkscape:connector-curvature="0"
         sodipodi:nodetypes="cccccccc" />
    </clipPath>
    <clipPath
       clipPathUnits="userSpaceOnUse"
       id="clipPath1074">
      <path
         style="fill:none;stroke:#000000;stroke-width:0.26458332px;stroke-linecap:butt;stroke-linejoin:miter;stroke-opacity:1"
         d="m -2344.9671,30.613784 -2.7535,12.038608 c 0.05,1.644255 0.4518,2.422763 0.8325,3.073688 1.5676,1.617091 2.8695,2.171888 4.0982,2.433336 l 3.9061,-0.256143 c 1.8237,-0.161385 2.1245,-1.589617 2.6896,-3.137723 0.6952,-3.333731 0.7966,-6.99874 -0.3843,-11.526324 -0.6328,-1.962243 -1.4041,-3.952177 -2.8816,-6.08334 -0.4999,-0.739235 -1.1665,-1.200748 -2.1772,-1.088598 -0.7332,0.385207 -1.4925,0.848944 -2.5614,2.241232 z"
         id="path1076"
         inkscape:connector-curvature="0"
         sodipodi:nodetypes="ccccccccccc" />
    </clipPath>
    <clipPath
       clipPathUnits="userSpaceOnUse"
       id="clipPath1078">
      <path
         style="fill:none;stroke:#000000;stroke-width:0.26458332px;stroke-linecap:butt;stroke-linejoin:miter;stroke-opacity:1"
         d="m -2338.4355,92.087523 c -0.3089,2.866964 -0.5335,5.677707 -0.1281,8.068427 1.6713,7.55732 1.8438,9.79409 2.8519,14.51267 1.238,7.27588 1.2813,8.83671 2.1429,11.61367 0.3583,0.51764 0.5417,0.98527 1.2619,0.89972 1.5556,-0.71295 2.5678,-3.45045 3.3298,-6.01931 1.5808,-5.9955 2.1935,-10.09808 3.0925,-14.98744 0.8421,-4.60435 1.1544,-8.376235 1.1526,-11.654399 -0.1827,-2.070092 0.2942,-4.335174 -1.5368,-6.659655 -1.1197,-1.03125 -2.7666,-1.143802 -4.6106,-1.088596 -1.9532,0.308353 -3.5568,0.623395 -5.1383,1.766456 -1.1769,1.081135 -1.8446,1.426009 -2.4178,3.548457 z"
         id="path1080"
         inkscape:connector-curvature="0"
         sodipodi:nodetypes="cccccccccccc" />
    </clipPath>
    <clipPath
       clipPathUnits="userSpaceOnUse"
       id="clipPath1082">
      <path
         style="fill:none;stroke:#000000;stroke-width:0.26458332px;stroke-linecap:butt;stroke-linejoin:miter;stroke-opacity:1"
         d="m -2382.2996,180.64813 c -0.052,0.5265 -0.3111,0.69626 0.3686,1.54461 1.4883,0.96789 3.4065,1.67777 6.227,2.04136 3.244,0.37675 5.6782,0.30808 7.7163,0 1.9424,-0.33085 2.4601,-0.40025 4.3223,-1.05658 0.711,-0.34302 1.6872,-0.56306 2.0492,-1.44079 0.1726,-0.64035 -0.1091,-1.72895 -1.3127,-1.88903 l -17.0974,-0.3522 c -1.1606,0.14518 -1.948,0.17908 -2.2733,1.15263 z"
         id="path1084"
         inkscape:connector-curvature="0"
         sodipodi:nodetypes="ccccccccc" />
    </clipPath>
    <clipPath
       clipPathUnits="userSpaceOnUse"
       id="clipPath1104">
      <path
         style="fill:none;stroke:#000000;stroke-width:0.26458332px;stroke-linecap:butt;stroke-linejoin:miter;stroke-opacity:1"
         d="m -2404.5198,161.6297 c -0.7684,4.09825 1.2807,4.61053 1.2807,4.61053 6.7175,3.32089 7.8384,3.10684 15.6886,4.09824 20.3693,1.60224 26.8301,1.26835 33.5545,-0.064 7.8843,-1.40877 9.4559,-2.68948 10.7578,-3.52193 1.2941,-1.17519 2.5423,-3.34741 2.2413,-4.41842 0.1174,-2.54809 -2.6886,-1.82778 -4.4825,-2.30527 -3.6311,-0.27498 -5.275,-0.68026 -10.8219,-1.02457 -9.2033,-0.25499 -15.6491,-0.93464 -30.6088,-0.25613 -5.7493,0.26922 -8.1299,0.36513 -11.5263,0.76842 -3.2116,0.45329 -5.5762,0.62822 -6.0834,2.11313 z"
         id="path1106"
         inkscape:connector-curvature="0"
         sodipodi:nodetypes="ccccccccccc" />
    </clipPath>
    <clipPath
       clipPathUnits="userSpaceOnUse"
       id="clipPath1141">
      <path
         style="fill:none;stroke:#000000;stroke-width:0.26458332px;stroke-linecap:butt;stroke-linejoin:miter;stroke-opacity:1"
         d="m -2414.3812,80.497164 c 1.2327,0.647806 1.8326,0.86482 3.6416,1.166836 1.7313,0.279631 2.0901,0.194665 5.1972,0.206976 1.7267,-0.07521 3.2062,-0.296378 4.4494,-0.718592 1.2587,-0.768181 0.6248,-0.324623 1.4651,-1.148747 0.1983,-0.580594 0.1805,-1.139838 -0.6656,-1.555597 -1.1727,0.106725 -1.9962,0.21345 -2.8815,0.320175 -3.1017,0.194813 -6.1797,0.152144 -9.2211,-0.25614 l -1.921,-0.256141 c -0.6713,0.225677 -1.0174,0.628756 -1.0246,1.216668 0.2131,0.287973 0.2925,0.50913 0.9605,1.024562 z"
         id="path1143"
         inkscape:connector-curvature="0"
         sodipodi:nodetypes="ccccccccccc" />
    </clipPath>
    <clipPath
       clipPathUnits="userSpaceOnUse"
       id="clipPath1145">
      <path
         style="fill:none;stroke:#000000;stroke-width:0.26458332px;stroke-linecap:butt;stroke-linejoin:miter;stroke-opacity:1"
         d="m -2340.1448,78.163272 c -0.4745,0.295225 -0.8927,0.601538 -0.7697,1.494229 1.1166,1.748634 3.7065,1.770764 5.2072,1.947026 2.1397,0.06021 4.0299,-0.143735 5.9769,-0.860316 0.4814,0.01849 1.9029,-0.984539 1.6753,-1.041432 0.1812,-0.458851 -0.1413,-1.061471 -0.5433,-1.40367 -0.5447,-0.494647 -1.3001,-0.462775 -2.0829,-0.362236 -1.2642,0.281059 -2.3027,0.674918 -4.4827,0.498076 l -2.3546,-0.407517 c -0.9247,-0.159718 -1.7239,-0.04461 -2.6262,0.13584 z"
         id="path1147"
         inkscape:connector-curvature="0"
         sodipodi:nodetypes="cccccccccc" />
    </clipPath>
    <clipPath
       clipPathUnits="userSpaceOnUse"
       id="clipPath1174">
      <path
         style="fill:none;stroke:#000000;stroke-width:0.26458332px;stroke-linecap:butt;stroke-linejoin:miter;stroke-opacity:1"
         d="m -1153.0277,-991.12903 c -3.6544,134.05995 -9.0423,230.40768 5.4593,346.31153 l 32.6014,289.79001 c 7.7742,65.54634 16.7891,107.80954 36.9482,144.895 70.6751,29.63027 148.04754,25.77391 225.31172,22.45872 65.04432,-4.46376 119.49065,-24.82452 173.14953,-46.3664 39.39746,-17.05873 78.01628,-40.34637 116.04826,-68.32881 l 32.78597,-27.66319 c 6.46944,-36.22427 12.13583,-81.61642 -4.09823,-377.03895 -2.44412,-41.11416 -4.92247,-93.68068 -36.88424,-133.19311 -28.11947,-34.03354 -14.44215,-17.31094 -60.96146,-72.7439 -21.9448,-29.84609 -68.35045,-135.41267 -100.50145,-204.89157 l -369.4822,-0.7244 c -19.548,27.919 -48.9828,92.5922 -50.3768,127.49507 z"
         id="path1176"
         inkscape:connector-curvature="0"
         sodipodi:nodetypes="cccccccccccccc" />
    </clipPath>
    <clipPath
       clipPathUnits="userSpaceOnUse"
       id="clipPath1182">
      <path
         style="fill:none;stroke:#000000;stroke-width:0.26458332px;stroke-linecap:butt;stroke-linejoin:miter;stroke-opacity:1"
         d="m -1102.6509,-1116.4507 c -12.708,14.2789 -25.269,40.0655 -35.8616,57.5957 -10.3788,25.3251 -19.5655,52.1634 -22.821,75.70768 -8.9784,60.45827 -11.6445,94.70064 -11.2035,130.96928 l 4.6833,348.63317 c 1.3648,93.45279 8.7992,179.48717 22.4587,257.9131 l 5.8255,14.21373 c 21.9782,9.28023 44.0033,18.63856 61.986,21.25967 l 547.2678,-118.78803 c 23.48521,-22.68927 47.03355,-45.21013 68.52505,-73.2159 -15.43278,-118.46396 -18.92549,-230.10503 -46.7908,-355.67329 -7.36952,-21.58288 -4.73366,-35.93965 -34.77479,-73.89646 l -82.41435,-98.70437 -108.84705,-186.73878 z"
         id="path1184"
         inkscape:connector-curvature="0"
         sodipodi:nodetypes="ccccccccccccccc" />
    </clipPath>
    <clipPath
       clipPathUnits="userSpaceOnUse"
       id="clipPath957">
      <path
         style="fill:none;stroke:#000000;stroke-width:0.26458332px;stroke-linecap:butt;stroke-linejoin:miter;stroke-opacity:1"
         d="m -780.01336,-1180.4403 440.95908,453.75715 c -1.18721,41.43012 -14.40987,110.8306 -37.80182,174.5502 -21.58346,58.79325 -48.51474,107.63644 -85.35894,150.01457 -96.73289,119.16092 -205.64682,171.31119 -292.58472,195.97202 -147.28047,41.77761 -284.13074,16.81929 -384.79944,-24.27143 l 36.2238,-886.03291 z"
         id="path959"
         inkscape:connector-curvature="0"
         sodipodi:nodetypes="ccscsccc" />
    </clipPath>
  </defs>
  <sodipodi:namedview
     id="base"
     pagecolor="#ffffff"
     bordercolor="#666666"
     borderopacity="1.0"
     inkscape:pageopacity="0.0"
     inkscape:pageshadow="2"
     inkscape:zoom="0.064560085"
     inkscape:cx="-7637.3912"
     inkscape:cy="2384.0434"
     inkscape:document-units="mm"
     inkscape:current-layer="layer1"
     showgrid="false"
     inkscape:window-width="1920"
     inkscape:window-height="1048"
     inkscape:window-x="0"
     inkscape:window-y="0"
     inkscape:window-maximized="1"
     inkscape:snap-global="false"
     inkscape:pagecheckerboard="true" />
  <metadata
     id="metadata5">
    <rdf:RDF>
      <cc:Work
         rdf:about="">
        <dc:format>image/svg+xml</dc:format>
        <dc:type
           rdf:resource="http://purl.org/dc/dcmitype/StillImage" />
        <dc:title />
      </cc:Work>
    </rdf:RDF>
  </metadata>
  <g
     inkscape:label="Layer 1"
     inkscape:groupmode="layer"
     id="layer1">
    <g
       id="g1042"
       inkscape:export-xdpi="96"
       inkscape:export-ydpi="96">
      <circle
         r="573.41913"
         cy="-757.52264"
         cx="-911.55945"
         id="path815"
         style="opacity:1;fill:#bc4243;fill-opacity:1;stroke:#000000;stroke-width:0;stroke-linejoin:round;stroke-miterlimit:4;stroke-dasharray:none;stroke-opacity:1" />
      <rect
         clip-path="url(#clipPath957)"
         y="-1470.719"
         x="-1434.4604"
         height="1475.031"
         width="1338.8297"
         id="rect930"
         style="opacity:0.2;fill:#000000;fill-opacity:1;stroke:#000000;stroke-width:0.1;stroke-linejoin:round;stroke-miterlimit:4;stroke-dasharray:none;stroke-opacity:1" />
      <g
         id="g1207">
        <g
           id="g1188">
          <rect
             clip-path="url(#clipPath1174)"
             y="-1140.3521"
             x="-1251.8865"
             height="1083.8018"
             width="825.88867"
             id="rect1166"
             style="opacity:1;fill:#000000;fill-opacity:1;stroke:#000000;stroke-width:0.11279569;stroke-linejoin:round;stroke-miterlimit:4;stroke-dasharray:none;stroke-opacity:1" />
          <rect
             clip-path="url(#clipPath1182)"
             y="-1201.2183"
             x="-1202.6326"
             height="1027.3136"
             width="750.56415"
             id="rect1178"
             style="opacity:0.769;fill:#000000;fill-opacity:1;stroke:#000000;stroke-width:0.09192766;stroke-linejoin:round;stroke-miterlimit:4;stroke-dasharray:none;stroke-opacity:1" />
        </g>
        <g
           id="g1162"
           transform="matrix(3.3417321,0,0,3.3417321,7009.9032,-1146.5532)">
          <g
             transform="translate(0.51228103,0.51228123)"
             style="opacity:1"
             id="g1118">
            <g
               id="g1092"
               style="opacity:1">
              <ellipse
                 transform="matrix(1,0,0,0.96003609,-0.0548282,7.8359596)"
                 clip-path="url(#clipPath1008)"
                 ry="147.18977"
                 rx="101.19299"
                 cy="89.928101"
                 cx="-2371.2915"
                 id="path1004"
                 style="opacity:1;fill:#ebecdc;fill-opacity:1;stroke:#000000;stroke-width:0.07054427;stroke-linejoin:round;stroke-miterlimit:4;stroke-dasharray:none;stroke-opacity:1" />
              <rect
                 clip-path="url(#clipPath1066)"
                 y="85.80674"
                 x="-2420.1177"
                 height="42.037132"
                 width="21.027359"
                 id="rect1012"
                 style="opacity:1;fill:#8f819a;fill-opacity:1;stroke:#000000;stroke-width:0.08241447;stroke-linejoin:round;stroke-miterlimit:4;stroke-dasharray:none;stroke-opacity:1" />
              <rect
                 clip-path="url(#clipPath1070)"
                 y="23.493847"
                 x="-2408.8962"
                 height="27.201492"
                 width="21.043453"
                 id="rect1012-8"
                 style="opacity:1;fill:#8f819a;fill-opacity:1;stroke:#000000;stroke-width:0.06632074;stroke-linejoin:round;stroke-miterlimit:4;stroke-dasharray:none;stroke-opacity:1" />
              <rect
                 clip-path="url(#clipPath1074)"
                 y="24.398094"
                 x="-2352.3887"
                 height="25.030764"
                 width="21.04615"
                 id="rect1012-8-2"
                 style="opacity:1;fill:#8f819a;fill-opacity:1;stroke:#000000;stroke-width:0.06362355;stroke-linejoin:round;stroke-miterlimit:4;stroke-dasharray:none;stroke-opacity:1" />
              <rect
                 clip-path="url(#clipPath1078)"
                 y="85.625633"
                 x="-2343.6855"
                 height="42.037136"
                 width="21.027359"
                 id="rect1012-8-9"
                 style="opacity:1;fill:#8f819a;fill-opacity:1;stroke:#000000;stroke-width:0.08241446;stroke-linejoin:round;stroke-miterlimit:4;stroke-dasharray:none;stroke-opacity:1" />
              <rect
                 clip-path="url(#clipPath1082)"
                 y="175.08302"
                 x="-2384.6335"
                 height="14.175413"
                 width="24.6803"
                 id="rect1012-8-96"
                 style="opacity:1;fill:#8f819a;fill-opacity:1;stroke:#000000;stroke-width:0.05184867;stroke-linejoin:round;stroke-miterlimit:4;stroke-dasharray:none;stroke-opacity:1" />
            </g>
            <ellipse
               style="opacity:1;fill:#000000;fill-opacity:1;stroke:#000000;stroke-width:0.11362515;stroke-linejoin:round;stroke-miterlimit:4;stroke-dasharray:none;stroke-opacity:1"
               id="path1094"
               cx="-2409.8984"
               cy="68.650665"
               rx="14.977411"
               ry="6.7809129" />
            <ellipse
               style="opacity:1;fill:#000000;fill-opacity:1;stroke:#000000;stroke-width:0.11091182;stroke-linejoin:round;stroke-miterlimit:4;stroke-dasharray:none;stroke-opacity:1"
               id="path1096"
               cx="-2336.6287"
               cy="-40.588482"
               rx="13.441926"
               ry="6.5261292"
               transform="rotate(-2.653379)" />
            <rect
               style="opacity:1;fill:#000000;fill-opacity:1;stroke:#000000;stroke-width:0.1;stroke-linejoin:round;stroke-miterlimit:4;stroke-dasharray:none;stroke-opacity:1"
               id="rect1100"
               width="68.709709"
               height="17.6737"
               x="-2406.2488"
               y="155.80251"
               clip-path="url(#clipPath1104)" />
          </g>
          <rect
             clip-path="url(#clipPath1141)"
             y="76.551094"
             x="-2417.4946"
             height="8.1482601"
             width="20.827225"
             id="rect1120"
             style="opacity:1;fill:#868780;fill-opacity:1;stroke:#000000;stroke-width:0.0201651;stroke-linejoin:round;stroke-miterlimit:4;stroke-dasharray:none;stroke-opacity:1" />
          <rect
             clip-path="url(#clipPath1145)"
             y="75.333534"
             x="-2343.343"
             height="8.150075"
             width="17.243071"
             id="rect1120-0"
             style="opacity:1;fill:#868780;fill-opacity:1;stroke:#000000;stroke-width:0.01835018;stroke-linejoin:round;stroke-miterlimit:4;stroke-dasharray:none;stroke-opacity:1" />
        </g>
      </g>
    </g>
  </g>
</svg>
